***************************************************************

[IMG]http://www.torrentforce.org/imghost/3/greyshadow_tfbanner.png[/IMG]

***************************************************************

[IMG]http://www.torrentforce.org/imghost/4/greyshadow_captainamerica.jpg[/IMG]

***************************************************************

FILM TITLE: Captain America: The First Avenger (2011)

***************************************************************

Genre: Action | Adventure | Sci-Fi    

Rated PG-13 for intense sequences of sci-fi violence and action

Release:  29 July 2011 (UK)

Director: Joe Johnston 

Writer: Christopher Markus (screenplay), Stephen McFeely

Stars:  Chris Evans, Hugo Weaving and Samuel L. Jackson

Country: USA

Language: English | Norwegian

Plot:
After being deemed unfit for military service, Steve Rogers volunteers 
for a top secret research project that turns him into Captain America, 
a superhero dedicated to defending America's ideals.

IMDB Rating: 7.2/10 from 53,047 users   Metascore: 66/100 
 
http://www.imdb.com/title/tt0458339/ 

****************************************************************

[IMG]http://www.torrentforce.org/imghost/4/greyshadow_captainamericaxvid1.png[/IMG]
[IMG]http://www.torrentforce.org/imghost/4/greyshadow_captainamericaxvid2.png[/IMG]
[IMG]http://www.torrentforce.org/imghost/4/greyshadow_captainamericaxvid3.png[/IMG]
[IMG]http://www.torrentforce.org/imghost/4/greyshadow_captainamericaxvid4.png[/IMG]

****************************************************************

[IMG]http://www.torrentforce.org/imghost/2/greyshadow_mediainfo.png[/IMG]
General
Complete name                    : Captain America-The First Avenger 2011 720p BDRip XviD ac3 (avi) [TFRG].avi
Format                           : AVI
Format/Info                      : Audio Video Interleave
Format profile                   : OpenDML
File size                        : 2.89 GiB
Duration                         : 2h 4mn
Overall bit rate                 : 3329 Kbps
Writing library                  : VirtualDub build 32842/release

Video
ID                               : 0
Format                           : MPEG-4 Visual
Format profile                   : Simple@L5
Format settings, BVOP            : No
Format settings, QPel            : No
Format settings, GMC             : No warppoints
Format settings, Matrix          : Default (H.263)
Codec ID                         : XVID
Codec ID/Hint                    : XviD
Duration                         : 2h 4mn
Bit rate                         : 2999 Kbps
Width                            : 1280 pixels
Height                           : 544 pixels
Display aspect ratio             : 2.35:1
Frame rate                       : 23.976 fps
Color space                      : YUV
Chroma subsampling               : 4:2:0
Bit depth                        : 8 bits
Scan type                        : Progressive
Compression mode                 : Lossy
Bits/(Pixel*Frame)               : 0.180
Stream size                      : 2.60 GiB (90%)
Writing library                  : XviD 64

Audio
ID                               : 1
Format                           : AC-3
Format/Info                      : Audio Coding 3
Mode extension                   : CM (complete main)
Codec ID                         : 2000
Duration                         : 2h 4mn
Bit rate mode                    : Constant
Bit rate                         : 320 Kbps
Channel(s)                       : 6 channels
Channel positions                : Front: L C R, Side: L R, LFE
Sampling rate                    : 48.0 KHz
Bit depth                        : 16 bits
Compression mode                 : Lossy
Stream size                      : 284 MiB (10%)
Alignment                        : Aligned on interleaves
Interleave, duration             : 42 ms (1.00 video frame)
Interleave, preload duration     : 512 ms

****************************************************************

Video Source: Captain America The First Avenger 2011 BluRay 1080p AVC DTS-HD MA7.1-CHDBits (43.4GB)

Thanks: (chdbits.org)

****************************************************************

I provide a small sample, so please download this to check your 
compatibility first if you are unsure.

****************************************************************

7th October 2011

I am re-introducing my warning to all downloaders, please please
please use a proxy or vpn service, it is the only secure way to
keep your own ip address from being seen during downloading or
uploading/seeding, this WILL stop isp letters, as for advice to 
which one then thats simple, vpntunnel.se server based in Sweden 
is the right one to use, I have cancelled my vpn and transfered 
to a Swedish one already !!! enough said. 

****************************************************************

A big thanks to all the sites out there who care and share and
who make it possible for you to download this torrent for free.

Greetz to Westy, Ripwyn, mustang, noir, Blackjesus, MXMG, The Stig 
and all the other outstanding members of our community of file 
sharers and a special mention to our friends at 1337x.

****************************************************************